<?xml version="1.0" standalone="no"?>
<!DOCTYPE svg PUBLIC "-//W3C//DTD SVG 20010904//EN"
 "http://www.w3.org/TR/2001/REC-SVG-20010904/DTD/svg10.dtd">
<svg version="1.0" xmlns="http://www.w3.org/2000/svg"
 width="1040.000000pt" height="1174.000000pt" viewBox="0 0 1040.000000 1174.000000"
 preserveAspectRatio="xMidYMid meet">

<g transform="translate(0.000000,1174.000000) scale(0.100000,-0.100000)"
fill="#000000" stroke="none">
<path d="M4980 11734 c-348 -24 -616 -84 -970 -215 -269 -100 -453 -195 -710
-365 -159 -105 -423 -321 -474 -388 -15 -21 -82 -94 -148 -164 -96 -102 -148
-169 -263 -342 -156 -235 -171 -260 -220 -389 -18 -48 -49 -119 -68 -157 -55
-110 -133 -327 -171 -480 -59 -234 -86 -494 -85 -813 0 -249 4 -311 28 -501
28 -218 118 -575 174 -686 13 -27 32 -74 42 -104 37 -113 148 -329 251 -487
l52 -81 -26 -7 c-54 -13 -299 -108 -366 -142 -38 -19 -109 -50 -157 -68 -129
-49 -154 -64 -389 -220 -173 -115 -240 -167 -342 -263 -70 -66 -143 -133 -163
-148 -39 -30 -235 -253 -302 -345 -76 -103 -263 -413 -318 -524 -29 -60 -69
-155 -88 -210 -19 -55 -49 -132 -67 -170 -17 -39 -40 -112 -51 -164 -10 -52
-32 -140 -49 -195 -62 -216 -90 -468 -90 -825 0 -399 35 -607 171 -1008 65
-191 99 -273 190 -456 110 -220 164 -306 264 -422 28 -33 74 -91 100 -130 27
-38 141 -162 254 -275 202 -202 287 -272 525 -433 39 -26 177 -101 306 -166
206 -104 265 -128 480 -199 401 -133 685 -182 1054 -182 133 0 227 7 449 35
250 32 300 41 466 89 103 29 209 65 236 78 28 14 79 35 115 47 158 52 562 283
640 366 13 14 30 25 37 25 7 0 32 17 56 38 23 22 69 57 102 79 33 22 66 52 74
66 7 13 24 30 37 36 13 6 38 31 56 56 18 25 36 45 41 45 15 0 287 272 287 287
0 7 21 28 48 47 26 19 53 45 61 58 24 39 111 136 231 259 63 64 185 192 270
284 85 93 211 228 280 300 69 73 199 212 290 310 91 98 235 251 321 339 86 89
184 196 218 238 34 43 87 99 118 125 30 27 65 59 77 73 11 14 56 61 99 106 42
44 77 83 77 86 0 3 -138 138 -307 299 -170 161 -342 326 -383 366 l-76 72 -40
-14 c-23 -8 -56 -23 -75 -33 -19 -11 -45 -23 -58 -27 -23 -7 -76 -46 -191
-140 -30 -25 -81 -65 -113 -89 -66 -50 -57 -40 -1094 -1138 -420 -444 -786
-826 -814 -850 -29 -24 -95 -83 -148 -132 -53 -48 -112 -100 -131 -114 -19
-15 -55 -43 -78 -64 -24 -20 -60 -42 -80 -49 -21 -7 -56 -29 -79 -49 -81 -71
-395 -210 -474 -210 -14 0 -46 -7 -70 -16 -166 -61 -747 -64 -924 -6 -33 11
-87 27 -120 35 -163 40 -233 62 -267 83 -21 14 -62 34 -91 45 -28 11 -142 81
-252 154 -183 122 -211 144 -335 271 -86 88 -157 172 -195 229 -32 50 -73 108
-90 130 -100 129 -249 521 -290 766 -36 211 -36 509 0 724 26 162 111 437 157
510 13 22 34 65 47 95 12 30 39 80 61 110 21 30 63 92 94 136 65 95 357 391
426 431 25 14 61 38 80 53 60 46 199 124 340 192 178 86 227 104 335 123 50 9
147 27 218 41 105 20 157 24 300 23 161 0 225 -5 387 -29 111 -16 277 -58 326
-81 22 -11 27 -6 337 321 200 210 210 221 246 253 13 12 63 59 112 105 48 45
92 82 98 82 6 0 34 22 62 49 29 28 65 55 81 62 26 11 27 13 14 28 -9 9 -73 44
-143 78 -233 110 -345 155 -531 212 -70 21 -140 44 -157 50 -16 6 -47 13 -67
16 -30 5 -59 27 -158 122 -66 63 -146 146 -178 184 -31 38 -93 109 -137 157
-123 137 -174 203 -186 242 -7 19 -29 54 -49 77 -39 45 -145 245 -160 304 -5
19 -25 95 -45 169 -20 74 -43 189 -53 255 -30 209 -18 568 23 715 9 30 22 82
29 115 53 234 129 399 306 663 105 157 134 193 257 313 87 85 171 156 228 194
50 32 108 73 130 90 129 100 521 249 766 290 299 51 675 27 924 -59 262 -90
440 -169 520 -231 22 -17 81 -58 130 -90 57 -38 141 -109 228 -194 123 -120
152 -156 257 -313 177 -264 253 -429 306 -663 7 -33 20 -85 29 -115 41 -147
53 -506 23 -715 -10 -66 -33 -181 -53 -255 -20 -74 -40 -150 -45 -169 -15 -59
-121 -259 -160 -304 -20 -23 -42 -58 -49 -79 -7 -20 -29 -56 -50 -80 -20 -23
-44 -54 -53 -67 -46 -66 -437 -484 -472 -503 -10 -6 -55 -19 -99 -29 -117 -28
-295 -85 -427 -135 -149 -57 -421 -190 -478 -233 -25 -18 -70 -49 -101 -69
-50 -32 -98 -66 -186 -134 -16 -13 -40 -29 -53 -36 -39 -20 -186 -159 -446
-420 -344 -346 -554 -566 -619 -647 -31 -38 -79 -88 -106 -110 -28 -22 -51
-43 -51 -47 0 -4 -64 -74 -142 -156 -79 -82 -199 -211 -268 -288 -69 -76 -215
-230 -326 -344 -110 -113 -210 -221 -222 -241 -12 -20 -44 -54 -70 -75 -26
-21 -56 -50 -67 -64 -11 -14 -45 -52 -75 -86 -30 -34 -69 -76 -85 -95 -17 -19
-43 -45 -58 -59 -15 -14 -54 -54 -86 -90 l-58 -65 386 -367 c254 -242 389
-364 395 -358 6 6 18 10 28 10 42 0 177 86 395 252 88 66 179 156 303 298 92
106 1541 1619 1697 1773 71 70 135 127 142 127 6 0 40 26 75 58 96 87 141 120
169 128 15 3 46 23 69 44 24 20 60 43 81 49 21 7 50 23 65 35 26 22 146 74
267 117 65 22 106 30 290 56 230 31 639 18 805 -27 41 -11 109 -29 151 -40 90
-23 137 -42 190 -76 22 -13 61 -33 88 -44 86 -34 383 -225 436 -280 16 -17 61
-55 99 -83 51 -39 102 -95 200 -222 148 -190 220 -303 265 -418 17 -43 43
-101 57 -129 14 -28 32 -80 39 -117 8 -37 21 -86 30 -110 8 -24 26 -110 40
-191 21 -126 25 -180 25 -362 0 -292 -24 -437 -115 -707 -57 -168 -76 -211
-147 -330 -91 -152 -116 -186 -238 -320 -171 -187 -290 -286 -501 -413 -262
-157 -403 -213 -664 -265 -170 -33 -210 -38 -379 -41 -172 -3 -251 2 -411 28
-27 5 -70 11 -95 15 -25 4 -65 13 -90 20 -25 8 -65 19 -90 25 -25 7 -53 16
-62 21 -10 5 -20 9 -22 9 -3 0 -83 -87 -179 -192 -179 -198 -388 -406 -493
-491 -32 -26 -94 -78 -137 -115 -43 -37 -93 -74 -110 -83 l-31 -17 41 -21 c23
-11 58 -32 78 -45 20 -14 61 -34 91 -46 31 -11 115 -49 187 -84 153 -74 383
-152 477 -162 36 -4 102 -17 147 -30 76 -22 126 -30 333 -54 41 -5 194 -9 340
-9 466 -1 787 54 1190 205 290 109 437 188 710 382 257 183 412 326 643 596
217 253 301 387 446 713 132 298 197 500 245 753 54 283 69 474 63 800 -6 325
-15 401 -91 717 -76 315 -154 527 -253 681 -21 31 -60 100 -88 152 -62 119
-264 395 -370 509 -44 48 -96 106 -115 130 -41 50 -265 246 -360 313 -36 25
-91 69 -124 98 -32 28 -95 69 -139 92 -45 22 -108 57 -142 78 -33 21 -101 57
-152 79 -50 22 -119 54 -154 71 -34 18 -112 49 -173 70 -61 21 -140 48 -176
60 -36 13 -66 24 -68 25 -2 2 21 40 51 86 104 160 215 375 252 489 10 30 29
77 42 104 56 111 146 468 174 686 24 190 28 252 28 501 1 319 -26 579 -85 813
-38 153 -116 370 -171 480 -19 38 -50 109 -68 157 -49 129 -64 154 -220 389
-115 173 -167 240 -263 342 -66 70 -133 143 -148 164 -51 67 -315 283 -474
388 -258 171 -441 265 -712 365 -281 105 -532 169 -763 196 -126 15 -533 27
-645 19z"/>
<path d="M6304 5110 c-12 -5 -25 -14 -29 -20 -4 -6 -26 -20 -50 -30 -23 -10
-57 -31 -76 -47 -19 -17 -74 -58 -124 -92 -202 -138 -153 -89 -1213 -1206
-844 -888 -1062 -1112 -1143 -1172 -142 -105 -246 -174 -306 -203 -24 -11 -43
-24 -43 -28 0 -8 746 -705 760 -710 13 -5 81 27 150 70 174 110 231 150 252
178 12 17 43 44 68 60 25 16 138 123 251 237 196 199 1506 1584 1637 1731 55
62 162 162 312 290 39 33 124 94 179 127 9 5 30 19 46 31 17 11 54 31 82 45
29 13 52 26 52 29 -1 8 -763 713 -774 716 -5 1 -20 -1 -31 -6z"/>
</g>
</svg>
